<svg width="1051" height="1051" viewBox="0 0 1051 1051" fill="none" xmlns="http://www.w3.org/2000/svg">
<rect width="1051" height="1051" rx="100" fill="#111827"/>
<g clip-path="url(#clip0_18_17)">
<path d="M781.5 322.907V568.667C781.5 574.325 779.252 579.751 775.252 583.752C771.251 587.752 765.825 590 760.167 590C754.509 590 749.083 587.752 745.082 583.752C741.081 579.751 738.833 574.325 738.833 568.667V392.709L580.967 468.144C564.321 477.969 545.319 483.087 525.991 482.949C505.721 482.981 485.819 477.534 468.391 467.184L310.951 392.24C298.575 385.585 288.205 375.74 280.918 363.725C273.631 351.711 269.691 337.965 269.509 323.914C269.326 309.864 272.906 296.02 279.878 283.82C286.85 271.62 296.96 261.508 309.159 254.533C309.735 254.192 310.353 253.872 310.951 253.573L470.033 177.669C487.208 167.806 506.7 162.696 526.505 162.865C546.31 163.034 565.712 168.475 582.716 178.629L740.049 253.573C752.464 260.442 762.839 270.476 770.119 282.653C777.4 294.831 781.326 308.72 781.5 322.907ZM525.969 525.573C498.675 525.634 471.849 518.48 448.209 504.837L354.833 460.272V517.872C354.846 540.646 362.137 562.82 375.643 581.157C389.148 599.494 408.16 613.035 429.905 619.803C460.974 628.723 493.179 633.057 525.5 632.667C557.826 633.029 590.031 628.667 621.095 619.717C642.84 612.949 661.852 599.409 675.358 581.071C688.863 562.734 696.154 540.561 696.167 517.787V460.379L601.041 505.819C578.207 518.937 552.303 525.768 525.969 525.616V525.573Z" fill="url(#paint0_linear_18_17)"/>
</g>
<path d="M303.188 868H226.391V755.969H303.188V778.391H248.812V800.812H285.609V823.234H248.812V845.578H303.188V868ZM395.141 868H389.984L381.703 856.516C379.672 858.339 377.51 860.057 375.219 861.672C372.979 863.234 370.609 864.615 368.109 865.812C365.609 866.958 363.031 867.87 360.375 868.547C357.771 869.224 355.115 869.562 352.406 869.562C346.521 869.562 340.974 868.469 335.766 866.281C330.609 864.042 326.078 860.969 322.172 857.062C318.318 853.104 315.271 848.443 313.031 843.078C310.792 837.661 309.672 831.776 309.672 825.422C309.672 819.12 310.792 813.26 313.031 807.844C315.271 802.427 318.318 797.74 322.172 793.781C326.078 789.823 330.609 786.724 335.766 784.484C340.974 782.245 346.521 781.125 352.406 781.125C354.281 781.125 356.208 781.281 358.188 781.594C360.219 781.906 362.172 782.427 364.047 783.156C365.974 783.833 367.771 784.745 369.438 785.891C371.104 787.036 372.51 788.443 373.656 790.109V751.047H395.141V868ZM373.656 825.422C373.656 822.505 373.083 819.693 371.938 816.984C370.844 814.224 369.333 811.802 367.406 809.719C365.479 807.583 363.214 805.891 360.609 804.641C358.057 803.339 355.323 802.688 352.406 802.688C349.49 802.688 346.729 803.208 344.125 804.25C341.573 805.292 339.333 806.802 337.406 808.781C335.531 810.708 334.047 813.078 332.953 815.891C331.859 818.703 331.312 821.88 331.312 825.422C331.312 828.495 331.859 831.411 332.953 834.172C334.047 836.932 335.531 839.354 337.406 841.438C339.333 843.521 341.573 845.161 344.125 846.359C346.729 847.557 349.49 848.156 352.406 848.156C355.323 848.156 358.057 847.531 360.609 846.281C363.214 844.979 365.479 843.286 367.406 841.203C369.333 839.068 370.844 836.646 371.938 833.938C373.083 831.177 373.656 828.339 373.656 825.422ZM472.953 858.234C471.234 859.797 469.385 861.281 467.406 862.688C465.479 864.042 463.448 865.24 461.312 866.281C459.177 867.271 456.964 868.052 454.672 868.625C452.432 869.25 450.141 869.562 447.797 869.562C442.641 869.562 437.797 868.651 433.266 866.828C428.734 865.005 424.75 862.427 421.312 859.094C417.927 855.708 415.245 851.62 413.266 846.828C411.339 841.984 410.375 836.568 410.375 830.578V784.328H431.625V830.578C431.625 833.391 432.042 835.917 432.875 838.156C433.76 840.344 434.932 842.193 436.391 843.703C437.849 845.214 439.542 846.359 441.469 847.141C443.448 847.922 445.557 848.312 447.797 848.312C449.984 848.312 452.042 847.818 453.969 846.828C455.948 845.786 457.667 844.432 459.125 842.766C460.583 841.099 461.729 839.224 462.562 837.141C463.396 835.005 463.812 832.818 463.812 830.578V784.328H485.141V868H479.984L472.953 858.234Z" fill="white"/>
<path d="M526.156 868H503.734V755.969H582.172V778.391H526.156V800.812H559.75V823.234H526.156V868ZM612.953 868H591.469V751.047H612.953V868ZM710.141 825.422C710.141 831.672 709.021 837.505 706.781 842.922C704.542 848.286 701.495 852.948 697.641 856.906C693.786 860.812 689.255 863.911 684.047 866.203C678.891 868.443 673.344 869.562 667.406 869.562C661.521 869.562 655.974 868.443 650.766 866.203C645.609 863.911 641.078 860.812 637.172 856.906C633.318 852.948 630.271 848.286 628.031 842.922C625.792 837.505 624.672 831.672 624.672 825.422C624.672 819.068 625.792 813.182 628.031 807.766C630.271 802.349 633.318 797.688 637.172 793.781C641.078 789.823 645.609 786.724 650.766 784.484C655.974 782.245 661.521 781.125 667.406 781.125C673.344 781.125 678.891 782.193 684.047 784.328C689.255 786.411 693.786 789.406 697.641 793.312C701.495 797.167 704.542 801.828 706.781 807.297C709.021 812.714 710.141 818.755 710.141 825.422ZM688.656 825.422C688.656 821.984 688.083 818.885 686.938 816.125C685.844 813.312 684.333 810.917 682.406 808.938C680.479 806.906 678.214 805.37 675.609 804.328C673.057 803.234 670.323 802.688 667.406 802.688C664.49 802.688 661.729 803.234 659.125 804.328C656.573 805.37 654.333 806.906 652.406 808.938C650.531 810.917 649.047 813.312 647.953 816.125C646.859 818.885 646.312 821.984 646.312 825.422C646.312 828.651 646.859 831.646 647.953 834.406C649.047 837.167 650.531 839.562 652.406 841.594C654.333 843.625 656.573 845.24 659.125 846.438C661.729 847.583 664.49 848.156 667.406 848.156C670.323 848.156 673.057 847.609 675.609 846.516C678.214 845.422 680.479 843.885 682.406 841.906C684.333 839.927 685.844 837.531 686.938 834.719C688.083 831.906 688.656 828.807 688.656 825.422ZM827.562 837.766C827.562 842.141 826.729 846.281 825.062 850.188C823.396 854.042 821.104 857.401 818.188 860.266C815.323 863.13 811.938 865.396 808.031 867.062C804.177 868.729 800.036 869.562 795.609 869.562C791.651 869.562 787.849 868.885 784.203 867.531C780.557 866.125 777.25 864.094 774.281 861.438C771.365 864.094 768.083 866.125 764.438 867.531C760.844 868.885 757.042 869.562 753.031 869.562C748.604 869.562 744.464 868.729 740.609 867.062C736.755 865.396 733.37 863.13 730.453 860.266C727.589 857.401 725.323 854.042 723.656 850.188C721.99 846.281 721.156 842.141 721.156 837.766V784.484H742.484V837.766C742.484 839.224 742.745 840.604 743.266 841.906C743.839 843.156 744.594 844.276 745.531 845.266C746.521 846.203 747.641 846.958 748.891 847.531C750.193 848.052 751.573 848.312 753.031 848.312C754.49 848.312 755.87 848.052 757.172 847.531C758.474 846.958 759.62 846.203 760.609 845.266C761.599 844.276 762.354 843.156 762.875 841.906C763.448 840.604 763.734 839.224 763.734 837.766V784.484H784.984V837.766C784.984 839.224 785.271 840.604 785.844 841.906C786.417 843.156 787.172 844.276 788.109 845.266C789.099 846.203 790.219 846.958 791.469 847.531C792.771 848.052 794.151 848.312 795.609 848.312C797.068 848.312 798.448 848.052 799.75 847.531C801.052 846.958 802.172 846.203 803.109 845.266C804.099 844.276 804.88 843.156 805.453 841.906C806.026 840.604 806.312 839.224 806.312 837.766V784.484H827.562V837.766Z" fill="white"/>
<defs>
<linearGradient id="paint0_linear_18_17" x1="525.501" y1="162.861" x2="525.501" y2="632.691" gradientUnits="userSpaceOnUse">
<stop stop-color="#4587EE"/>
<stop offset="1" stop-color="#9B4BF0"/>
</linearGradient>
<clipPath id="clip0_18_17">
<rect width="512" height="512" fill="white" transform="translate(269.5 142)"/>
</clipPath>
</defs>
</svg>
